<?xml version="1.0" standalone="no"?><!DOCTYPE svg PUBLIC "-//W3C//DTD SVG 1.1//EN" "http://www.w3.org/Graphics/SVG/1.1/DTD/svg11.dtd"><svg t="1719543745869" class="icon" viewBox="0 0 1024 1024" version="1.1" xmlns="http://www.w3.org/2000/svg" p-id="1905" xmlns:xlink="http://www.w3.org/1999/xlink" width="200" height="200"><path d="M792 272v-80H232v80h-80v320h80v160h400v80h160V672h80V272z" fill="#9A73FF" p-id="1906"></path><path d="M631.99 192.02V112H392v80.02h239.99zM632 752H392v80h240v-80zM392 272v-80H232v80h160zM792 272v-80H632v80h160zM232 672v80h160v-80H232zM152 592h80v80h-80zM152 352h80v-80h-80v80l-80-0.01v240h80V352zM792 272h80v80h-80zM792 592h80v80h-80z" fill="#333333" p-id="1907"></path><path d="M872.01 752H792v-80h-80v80h79.99v80.02h-160V912h320v-79.98h-79.98V752zM872 351.99v240h80v-240h-80zM632 432h80v80h-80zM472 432h80v80h-80zM312 432h80v80h-80z" fill="#333333" p-id="1908"></path><path d="M232 272h80v80h-80zM152 352h80v80h-80z" fill="#FFFFFF" p-id="1909"></path></svg>